<?xml version="1.0" encoding="utf-8"?>
<!-- Generator: Adobe Illustrator 26.0.2, SVG Export Plug-In . SVG Version: 6.00 Build 0)  -->
<svg version="1.1" id="Layer_1" xmlns="http://www.w3.org/2000/svg" xmlns:xlink="http://www.w3.org/1999/xlink" x="0px" y="0px"
	 viewBox="0 0 500 500" style="enable-background:new 0 0 500 500;" xml:space="preserve">
<style type="text/css">
	.st0{fill-rule:evenodd;clip-rule:evenodd;fill:#FBFCFF;}
	.st1{enable-background:new    ;}
	.st2{fill:#516092;}
	.st3{fill:#ED7445;}
	.st4{fill:#ECEFF1;}
	.st5{opacity:0.5;fill:#D4E0FF;enable-background:new    ;}
	.st6{fill:#BCCCFD;}
	.st7{fill:#FFFFFF;}
	.st8{fill:#B0D8FF;}
	.st9{fill:#E3EBFF;}
</style>
<g id="BACKGROUND">
	<rect x="-196.2" y="-41.4" class="st0" width="500" height="500"/>
</g>
<g id="OBJECTS">
	<g>
		<g class="st1">
			<path class="st2" d="M168,340.9h2.8c2.2,0,3.7,0.7,3.7,2.9c0,2.1-1.5,3-3.6,3h-1.6v3.9H168V340.9z M170.7,345.8
				c1.7,0,2.5-0.6,2.5-2c0-1.4-0.9-1.9-2.6-1.9h-1.4v3.9H170.7z"/>
			<path class="st2" d="M178.5,340.9h1.4l3.3,9.8h-1.3l-1.7-5.5c-0.4-1.1-0.7-2.2-1-3.3h-0.1c-0.3,1.1-0.6,2.2-1,3.3l-1.7,5.5h-1.3
				L178.5,340.9z M176.9,346.8h4.5v1h-4.5V346.8z"/>
			<path class="st2" d="M184.1,345.8c0-3.2,1.9-5.1,4.5-5.1c1.4,0,2.3,0.6,2.8,1.2l-0.7,0.8c-0.5-0.5-1.1-0.9-2.1-0.9
				c-2,0-3.3,1.5-3.3,4c0,2.5,1.2,4,3.3,4c0.7,0,1.4-0.2,1.8-0.6v-2.6h-2.1v-1h3.2v4.1c-0.6,0.7-1.7,1.1-3,1.1
				C185.9,350.9,184.1,349,184.1,345.8z"/>
			<path class="st2" d="M193.9,340.9h5.7v1.1h-4.4v3.1h3.7v1.1h-3.7v3.6h4.6v1.1h-5.8V340.9z"/>
			<path class="st2" d="M204.8,346.7v-5.8h1.3v5.8c0,2.4,1,3.1,2.3,3.1c1.3,0,2.3-0.7,2.3-3.1v-5.8h1.2v5.8c0,3.2-1.5,4.2-3.5,4.2
				S204.8,349.8,204.8,346.7z"/>
			<path class="st2" d="M214.5,340.9h1.3l3.6,6.2l1.1,2h0.1c-0.1-1-0.2-2.1-0.2-3.1v-5.1h1.2v9.8h-1.3l-3.6-6.2l-1.1-2h-0.1
				c0.1,1,0.2,2,0.2,3.1v5.2h-1.2V340.9z"/>
			<path class="st2" d="M224.2,340.9h2.5c3,0,4.6,1.8,4.6,4.9s-1.6,5-4.6,5h-2.5V340.9z M226.6,349.7c2.3,0,3.4-1.4,3.4-3.9
				s-1.1-3.9-3.4-3.9h-1.1v7.8H226.6z"/>
			<path class="st2" d="M233.4,340.9h5.7v1.1h-4.4v3.1h3.7v1.1h-3.7v3.6h4.6v1.1h-5.8V340.9z"/>
			<path class="st2" d="M241.3,340.9h3.1c2,0,3.4,0.7,3.4,2.8c0,2-1.4,2.9-3.4,2.9h-1.8v4.2h-1.3V340.9z M244.2,345.6
				c1.5,0,2.4-0.6,2.4-1.9c0-1.3-0.8-1.8-2.4-1.8h-1.7v3.7H244.2z M244.2,346.3l1-0.6l3,5.2h-1.4L244.2,346.3z"/>
			<path class="st2" d="M252.3,345.8c0-3.2,1.9-5.1,4.4-5.1c1.2,0,2.1,0.6,2.7,1.2l-0.7,0.8c-0.5-0.6-1.2-0.9-2-0.9
				c-1.9,0-3.1,1.5-3.1,4c0,2.5,1.2,4,3,4c0.9,0,1.7-0.4,2.3-1.1l0.7,0.8c-0.8,0.9-1.7,1.4-3,1.4C254.1,350.9,252.3,349,252.3,345.8
				z"/>
			<path class="st2" d="M260.8,345.8c0-3.2,1.7-5.1,4.2-5.1s4.2,1.9,4.2,5.1c0,3.2-1.7,5.1-4.2,5.1S260.8,349,260.8,345.8z
				 M268,345.8c0-2.5-1.2-4-2.9-4s-2.9,1.5-2.9,4s1.2,4,2.9,4S268,348.3,268,345.8z"/>
			<path class="st2" d="M271.4,340.9h1.3l3.6,6.2l1.1,2h0.1c-0.1-1-0.2-2.1-0.2-3.1v-5.1h1.2v9.8h-1.3l-3.6-6.2l-1.1-2h-0.1
				c0.1,1,0.2,2,0.2,3.1v5.2h-1.2V340.9z"/>
			<path class="st2" d="M280.4,349.5l0.7-0.9c0.7,0.7,1.7,1.2,2.7,1.2c1.3,0,2.1-0.6,2.1-1.6c0-1-0.7-1.3-1.6-1.7l-1.4-0.6
				c-0.9-0.4-2-1.1-2-2.5c0-1.5,1.3-2.6,3.1-2.6c1.2,0,2.2,0.5,2.9,1.2l-0.7,0.8c-0.6-0.6-1.3-0.9-2.2-0.9c-1.1,0-1.8,0.6-1.8,1.4
				c0,0.9,0.9,1.3,1.6,1.6l1.4,0.6c1.1,0.5,2,1.2,2,2.6c0,1.6-1.3,2.8-3.4,2.8C282.4,350.9,281.2,350.4,280.4,349.5z"/>
			<path class="st2" d="M291.1,342h-3v-1.1h7.2v1.1h-3v8.8h-1.3V342z"/>
			<path class="st2" d="M297.1,340.9h3.1c2,0,3.4,0.7,3.4,2.8c0,2-1.4,2.9-3.4,2.9h-1.8v4.2h-1.3V340.9z M300,345.6
				c1.5,0,2.4-0.6,2.4-1.9c0-1.3-0.8-1.8-2.4-1.8h-1.7v3.7H300z M300,346.3l1-0.6l3,5.2h-1.4L300,346.3z"/>
			<path class="st2" d="M305.6,346.7v-5.8h1.3v5.8c0,2.4,1,3.1,2.3,3.1c1.3,0,2.3-0.7,2.3-3.1v-5.8h1.2v5.8c0,3.2-1.5,4.2-3.5,4.2
				C307.2,350.9,305.6,349.8,305.6,346.7z"/>
			<path class="st2" d="M314.8,345.8c0-3.2,1.9-5.1,4.4-5.1c1.2,0,2.1,0.6,2.7,1.2l-0.7,0.8c-0.5-0.6-1.2-0.9-2-0.9
				c-1.9,0-3.1,1.5-3.1,4c0,2.5,1.2,4,3,4c0.9,0,1.7-0.4,2.3-1.1l0.7,0.8c-0.8,0.9-1.7,1.4-3,1.4C316.6,350.9,314.8,349,314.8,345.8
				z"/>
			<path class="st2" d="M326,342h-3v-1.1h7.2v1.1h-3v8.8H326V342z"/>
			<path class="st2" d="M331.9,340.9h1.3v9.8h-1.3V340.9z"/>
			<path class="st2" d="M335.3,345.8c0-3.2,1.7-5.1,4.2-5.1c2.5,0,4.2,1.9,4.2,5.1c0,3.2-1.7,5.1-4.2,5.1
				C337.1,350.9,335.3,349,335.3,345.8z M342.4,345.8c0-2.5-1.2-4-2.9-4c-1.8,0-2.9,1.5-2.9,4s1.2,4,2.9,4
				C341.3,349.8,342.4,348.3,342.4,345.8z"/>
			<path class="st2" d="M345.9,340.9h1.3l3.6,6.2l1.1,2h0.1c-0.1-1-0.2-2.1-0.2-3.1v-5.1h1.2v9.8h-1.3l-3.6-6.2l-1.1-2h-0.1
				c0.1,1,0.2,2,0.2,3.1v5.2h-1.2V340.9z"/>
		</g>
	</g>
	<g>
		<g>
			<path class="st3" d="M381.1,352h-22.8c-0.8,0-1.4,0.6-1.4,1.4s0.6,1.4,1.4,1.4h22.8c0.8,0,1.4-0.6,1.4-1.4S381.8,352,381.1,352z"
				/>
			<path class="st3" d="M371.5,332.7c-0.1-0.3-0.4-0.5-0.7-0.5h-2.6c-0.3,0-0.6,0.2-0.7,0.5l-7.4,21h19L371.5,332.7z"/>
		</g>
		<polygon class="st4" points="366.2,336.6 365,339.9 374.2,339.9 372.9,336.6 		"/>
		<polygon class="st4" points="363.2,345 362,348.3 377.2,348.3 376,345 		"/>
	</g>
	<g>
		<g>
			<path class="st3" d="M157.3,352h-22.8c-0.8,0-1.4,0.6-1.4,1.4s0.6,1.4,1.4,1.4h22.8c0.8,0,1.4-0.6,1.4-1.4S158,352,157.3,352z"/>
			<path class="st3" d="M147.7,332.7c-0.1-0.3-0.4-0.5-0.7-0.5h-2.6c-0.3,0-0.6,0.2-0.7,0.5l-7.4,21h19L147.7,332.7z"/>
		</g>
		<polygon class="st4" points="142.4,336.6 141.2,339.9 150.4,339.9 149.2,336.6 		"/>
		<polygon class="st4" points="139.4,345 138.3,348.3 153.5,348.3 152.3,345 		"/>
	</g>
	<g>
		<polygon class="st5" points="158.5,200.6 103.9,200.6 103.9,295.3 158.5,295.3 173.4,295.3 237.6,295.3 237.6,130.1 158.5,130.1 
					"/>
		<polygon class="st5" points="327.6,206.3 327.6,70.7 248.5,70.7 248.5,295.3 324.5,295.3 327.6,295.3 385.7,295.3 385.7,206.3 		
			"/>
	</g>
	<g>
		<rect x="33" y="292.3" class="st2" width="434" height="2"/>
	</g>
	<g>
		<rect x="128.1" y="153.3" class="st6" width="190.7" height="149.9"/>
		<rect x="128.1" y="170.3" class="st7" width="190.7" height="132.9"/>
		<circle class="st7" cx="134.9" cy="161.5" r="2.8"/>
		<path class="st7" d="M149.5,161.5c0,1.5-1.2,2.8-2.8,2.8s-2.8-1.2-2.8-2.8s1.2-2.8,2.8-2.8C148.3,158.7,149.5,160,149.5,161.5z"/>
		<path class="st7" d="M161.4,161.5c0,1.5-1.2,2.8-2.8,2.8s-2.8-1.2-2.8-2.8s1.2-2.8,2.8-2.8S161.4,160,161.4,161.5z"/>
		<path class="st7" d="M253.2,166.5h-78.5c-2.6,0-4.8-2.1-4.8-4.8l0,0c0-2.6,2.1-4.8,4.8-4.8h78.5c2.6,0,4.8,2.1,4.8,4.8l0,0
			C257.9,164.4,255.8,166.5,253.2,166.5z"/>
		<path class="st7" d="M307.2,166.5H270c-2.6,0-4.8-2.1-4.8-4.8l0,0c0-2.6,2.1-4.8,4.8-4.8h37.2c2.6,0,4.8,2.1,4.8,4.8l0,0
			C311.9,164.4,309.8,166.5,307.2,166.5z"/>
		<rect x="143.3" y="229.5" class="st6" width="67.8" height="38.3"/>
		<rect x="143.3" y="182.5" class="st6" width="67.8" height="38.3"/>
		<g>
			<rect x="143.9" y="277.5" class="st6" width="66.7" height="3"/>
		</g>
		<g>
			<rect x="143.9" y="287.5" class="st6" width="66.7" height="3"/>
		</g>
		<g>
			<rect x="234.6" y="277.5" class="st6" width="66.7" height="3"/>
		</g>
		<g>
			<rect x="234.6" y="287.5" class="st6" width="66.7" height="3"/>
		</g>
	</g>
	<g>
		<path class="st2" d="M319.8,304.2H127.1V152.3h192.7V304.2z M129.1,302.2h188.7V154.3H129.1V302.2z"/>
	</g>
	<g>
		<g>
			<path class="st2" d="M365.5,281.7h-19.6V117h19.6V281.7z M347.9,279.7h15.6V119h-15.6V279.7z"/>
		</g>
		<rect x="343.3" y="272.1" class="st6" width="24.9" height="17.9"/>
		<g>
			<path class="st2" d="M364.6,262.7h-17.3c-0.4,0-0.8-0.2-0.9-0.6c-0.2-0.4-0.1-0.8,0.2-1.1l16.7-18l1.5,1.4l-15.1,16.3h15
				L364.6,262.7L364.6,262.7z"/>
		</g>
		<g>
			<path class="st2" d="M364.6,244.6h-17.3c-0.4,0-0.8-0.2-0.9-0.6c-0.2-0.4-0.1-0.8,0.2-1.1l16.7-18l1.5,1.4l-15.1,16.3h15
				L364.6,244.6L364.6,244.6z"/>
		</g>
		<g>
			<path class="st2" d="M364.6,226.6h-17.3c-0.4,0-0.8-0.2-0.9-0.6c-0.2-0.4-0.1-0.8,0.2-1.1l16.7-18l1.5,1.4l-15.1,16.3h15
				L364.6,226.6L364.6,226.6z"/>
		</g>
		<g>
			<path class="st2" d="M364.6,208.6h-17.3c-0.4,0-0.8-0.2-0.9-0.6c-0.2-0.4-0.1-0.8,0.2-1.1l16.7-18l1.5,1.4l-15.1,16.3h15
				L364.6,208.6L364.6,208.6z"/>
		</g>
		<g>
			<path class="st2" d="M364.6,190.5h-17.3c-0.4,0-0.8-0.2-0.9-0.6c-0.2-0.4-0.1-0.8,0.2-1.1l16.7-18l1.5,1.4l-15.1,16.3h15
				L364.6,190.5L364.6,190.5z"/>
		</g>
		<g>
			<path class="st2" d="M364.6,172.5h-17.3c-0.4,0-0.8-0.2-0.9-0.6c-0.2-0.4-0.1-0.8,0.2-1.1l16.7-18l1.5,1.4l-15.1,16.3h15
				L364.6,172.5L364.6,172.5z"/>
		</g>
		<g>
			<path class="st2" d="M364.6,154.5h-17.3c-0.4,0-0.8-0.2-0.9-0.6c-0.2-0.4-0.1-0.8,0.2-1.1l16.7-18l1.5,1.4l-15.1,16.3h15
				L364.6,154.5L364.6,154.5z"/>
		</g>
		<g>
			<path class="st2" d="M364.6,136.4h-17.3c-0.4,0-0.8-0.2-0.9-0.6s-0.1-0.8,0.2-1.1l16.7-18l1.5,1.4l-15.1,16.3h15L364.6,136.4
				L364.6,136.4z"/>
		</g>
		<rect x="333.8" y="110.1" class="st3" width="31.7" height="26.7"/>
		<rect x="381.4" y="110.1" class="st3" width="31.7" height="15.4"/>
		<g>
			<path class="st2" d="M412.6,112H255.9c-0.6,0-1-0.4-1-1s0.4-1,1-1h156.7c0.6,0,1,0.4,1,1S413.2,112,412.6,112z"/>
		</g>
		<g>
			<rect x="263.2" y="115.7" class="st2" width="1" height="65"/>
		</g>
		<path class="st8" d="M356.6,110.3"/>
		<rect x="334.8" y="286.8" class="st2" width="41.9" height="7.9"/>
		<g>
			<path class="st2" d="M349.7,111.7c-0.1,0-0.3,0-0.4-0.1l-8.4-8.4h-76.6l-7.9,7.9c-0.2,0.2-0.5,0.2-0.7,0s-0.2-0.5,0-0.7l8.1-8.1
				h77.4l8.6,8.6c0.2,0.2,0.2,0.5,0,0.7C350,111.7,349.9,111.7,349.7,111.7z"/>
		</g>
		<g>
			<path class="st2" d="M413.3,111.7c-0.2,0-0.4-0.1-0.4-0.3l-8.4-16h-20.3l-7.9,15.5c-0.1,0.2-0.4,0.3-0.7,0.2
				c-0.2-0.1-0.3-0.4-0.2-0.7l8.1-16h21.5l8.6,16.5c0.1,0.2,0,0.5-0.2,0.7C413.4,111.7,413.4,111.7,413.3,111.7z"/>
		</g>
		<path class="st6" d="M267.4,115.7c0,2-1.6,3.7-3.7,3.7s-3.7-1.6-3.7-3.7s1.6-3.7,3.7-3.7C265.8,112,267.4,113.6,267.4,115.7z"/>
		
			<rect x="220.9" y="183.1" transform="matrix(0.9958 -9.199625e-02 9.199625e-02 0.9958 -17.7269 25.0613)" class="st6" width="84.1" height="43.3"/>
		<g>
			<path class="st2" d="M285.4,103.2c-0.2,0-0.4-0.1-0.5-0.4c-0.1-0.3,0.1-0.5,0.3-0.6l74-22.6c0.1,0,0.2,0,0.3,0l35.1,14.8
				c0.3,0.1,0.4,0.4,0.3,0.7c-0.1,0.3-0.4,0.4-0.7,0.3l-34.9-14.7l-73.9,22.5C285.5,103.2,285.5,103.2,285.4,103.2z"/>
		</g>
		<g>
			<path class="st2" d="M347.8,111.8c-0.1,0-0.2,0-0.4-0.1c-0.5-0.2-0.8-0.8-0.6-1.3l11.7-30.7c0.2-0.4,0.6-0.7,1-0.6
				c0.4,0,0.8,0.4,0.9,0.8l6,29.9c0.1,0.5-0.2,1.1-0.8,1.2c-0.5,0.1-1.1-0.2-1.2-0.8l-5.3-26.5l-10.4,27.4
				C348.6,111.6,348.2,111.8,347.8,111.8z"/>
		</g>
		<path class="st6" d="M361.5,80.1c0,1.1-0.9,2-2,2s-2-0.9-2-2s0.9-2,2-2S361.5,79,361.5,80.1z"/>
		<g>
			<path class="st2" d="M274.9,111.8c-0.1,0-0.2,0-0.3-0.1l-9.8-7.9v7.4c0,0.3-0.2,0.5-0.5,0.5s-0.5-0.2-0.5-0.5v-8.5
				c0-0.2,0.1-0.4,0.3-0.5c0.2-0.1,0.4-0.1,0.5,0.1l10.6,8.6c0.2,0.2,0.2,0.5,0.1,0.7C275.2,111.8,275,111.8,274.9,111.8z"/>
		</g>
		<g>
			<path class="st2" d="M284.4,111.8c-0.1,0-0.2,0-0.3-0.1l-9.8-7.9v7.4c0,0.3-0.2,0.5-0.5,0.5s-0.5-0.2-0.5-0.5v-8.5
				c0-0.2,0.1-0.4,0.3-0.5c0.2-0.1,0.4-0.1,0.5,0.1l10.6,8.6c0.2,0.2,0.2,0.5,0.1,0.7C284.6,111.8,284.5,111.8,284.4,111.8z"/>
		</g>
		<g>
			<path class="st2" d="M293.9,111.8c-0.1,0-0.2,0-0.3-0.1l-9.8-7.9v7.4c0,0.3-0.2,0.5-0.5,0.5s-0.5-0.2-0.5-0.5v-8.5
				c0-0.2,0.1-0.4,0.3-0.5c0.2-0.1,0.4-0.1,0.5,0.1l10.6,8.6c0.2,0.2,0.2,0.5,0.1,0.7C294.1,111.8,294,111.8,293.9,111.8z"/>
		</g>
		<g>
			<path class="st2" d="M303.4,111.8c-0.1,0-0.2,0-0.3-0.1l-9.8-7.9v7.4c0,0.3-0.2,0.5-0.5,0.5s-0.5-0.2-0.5-0.5v-8.5
				c0-0.2,0.1-0.4,0.3-0.5c0.2-0.1,0.4-0.1,0.5,0.1l10.6,8.6c0.2,0.2,0.2,0.5,0.1,0.7C303.6,111.8,303.5,111.8,303.4,111.8z"/>
		</g>
		<g>
			<path class="st2" d="M312.8,111.8c-0.1,0-0.2,0-0.3-0.1l-9.8-7.9v7.4c0,0.3-0.2,0.5-0.5,0.5s-0.5-0.2-0.5-0.5v-8.5
				c0-0.2,0.1-0.4,0.3-0.5c0.2-0.1,0.4-0.1,0.5,0.1l10.6,8.6c0.2,0.2,0.2,0.5,0.1,0.7C313.1,111.8,313,111.8,312.8,111.8z"/>
		</g>
		<g>
			<path class="st2" d="M322.3,111.8c-0.1,0-0.2,0-0.3-0.1l-9.8-7.9v7.4c0,0.3-0.2,0.5-0.5,0.5s-0.5-0.2-0.5-0.5v-8.5
				c0-0.2,0.1-0.4,0.3-0.5c0.2-0.1,0.4-0.1,0.5,0.1l10.6,8.6c0.2,0.2,0.2,0.5,0.1,0.7C322.6,111.8,322.5,111.8,322.3,111.8z"/>
		</g>
		<g>
			<path class="st2" d="M331.8,111.8c-0.1,0-0.2,0-0.3-0.1l-9.8-7.9v7.4c0,0.3-0.2,0.5-0.5,0.5s-0.5-0.2-0.5-0.5v-8.5
				c0-0.2,0.1-0.4,0.3-0.5c0.2-0.1,0.4-0.1,0.5,0.1l10.6,8.6c0.2,0.2,0.2,0.5,0.1,0.7C332.1,111.8,332,111.8,331.8,111.8z"/>
		</g>
		<g>
			<path class="st2" d="M341.3,111.8c-0.1,0-0.2,0-0.3-0.1l-9.8-7.9v7.4c0,0.3-0.2,0.5-0.5,0.5s-0.5-0.2-0.5-0.5v-8.5
				c0-0.2,0.1-0.4,0.3-0.5c0.2-0.1,0.4-0.1,0.5,0.1l10.6,8.6c0.2,0.2,0.2,0.5,0.1,0.7C341.6,111.8,341.5,111.8,341.3,111.8z"/>
		</g>
		<g>
			<path class="st2" d="M397.5,111.8c-0.1,0-0.3-0.1-0.4-0.2l-12.8-15.1v14.6c0,0.3-0.2,0.5-0.5,0.5s-0.5-0.2-0.5-0.5v-16
				c0-0.2,0.1-0.4,0.3-0.5c0.2-0.1,0.4,0,0.6,0.1l13.6,16.1c0.2,0.2,0.2,0.5-0.1,0.7C397.7,111.8,397.6,111.8,397.5,111.8z"/>
		</g>
		<g>
			<path class="st2" d="M407.3,111.8c-0.2,0-0.3-0.1-0.4-0.2l-9.7-14.7v14.3c0,0.3-0.2,0.5-0.5,0.5s-0.5-0.2-0.5-0.5v-16
				c0-0.2,0.1-0.4,0.4-0.5c0.2-0.1,0.4,0,0.6,0.2l10.6,16.1c0.2,0.2,0.1,0.5-0.1,0.7C407.5,111.8,407.4,111.8,407.3,111.8z"/>
		</g>
		<path class="st3" d="M266.9,182c0,1.7-1.4,3.1-3.1,3.1c-1.7,0-3.1-1.4-3.1-3.1c0-1.7,1.4-3.1,3.1-3.1
			C265.5,178.9,266.9,180.3,266.9,182z"/>
	</g>
	<g>
		<g>
			<rect x="93.1" y="244.8" class="st2" width="2" height="48"/>
		</g>
		<g>
			<rect x="55.1" y="244.8" class="st2" width="2" height="48"/>
		</g>
		<rect x="50.1" y="249.3" class="st9" width="50.2" height="18.5"/>
		<polygon class="st3" points="100.3,267.8 100.3,250.3 91.1,267.8 		"/>
		<polygon class="st3" points="68.6,267.8 79.3,267.8 89.1,249.3 78.4,249.3 		"/>
		<polygon class="st3" points="55.9,249.3 50.1,260.2 50.1,267.8 56.8,267.8 66.6,249.3 		"/>
		<g>
			<rect x="47.6" y="278.8" class="st2" width="55" height="2"/>
		</g>
	</g>
	<g>
		<g>
			<rect x="441.1" y="244.8" class="st2" width="2" height="48"/>
		</g>
		<g>
			<rect x="403.1" y="244.8" class="st2" width="2" height="48"/>
		</g>
		<rect x="398.1" y="249.3" class="st9" width="50.2" height="18.5"/>
		<polygon class="st3" points="448.3,267.8 448.3,250.3 439.1,267.8 		"/>
		<polygon class="st3" points="416.6,267.8 427.3,267.8 437.1,249.3 426.4,249.3 		"/>
		<polygon class="st3" points="403.9,249.3 398.1,260.2 398.1,267.8 404.8,267.8 414.6,249.3 		"/>
		<g>
			<rect x="395.6" y="278.8" class="st2" width="55" height="2"/>
		</g>
	</g>
	<g>
		<g>
			<path class="st3" d="M124.5,306.7h-22.8c-0.8,0-1.4,0.6-1.4,1.4s0.6,1.4,1.4,1.4h22.8c0.8,0,1.4-0.6,1.4-1.4
				S125.2,306.7,124.5,306.7z"/>
			<path class="st3" d="M115,287.3c-0.1-0.3-0.4-0.5-0.7-0.5h-2.6c-0.3,0-0.6,0.2-0.7,0.5l-7.4,21h19L115,287.3z"/>
		</g>
		<polygon class="st4" points="109.6,291.2 108.4,294.5 117.6,294.5 116.4,291.2 		"/>
		<polygon class="st4" points="106.6,299.7 105.5,303 120.7,303 119.5,299.7 		"/>
	</g>
	<path class="st5" d="M121.1,129.6c-1.7,0-3.2,0.5-4.5,1.4v-2.2c0-6.4-5.1-11.5-11.5-11.5s-11.5,5.1-11.5,11.5v4.3
		c-1-1-2.4-1.6-4-1.6c-3.2,0-5.8,2.6-5.8,5.8h45.1C128.9,133.1,125.4,129.6,121.1,129.6z"/>
	<path class="st5" d="M214,98.3c-1.2,0-2.3,0.4-3.3,1v-1.6c0-4.6-3.7-8.4-8.4-8.4s-8.4,3.7-8.4,8.4v3.2c-0.8-0.7-1.8-1.2-2.9-1.2
		c-2.3,0-4.2,1.9-4.2,4.2h32.8C219.6,100.8,217.1,98.3,214,98.3z"/>
</g>
</svg>
